<?xml version="1.0" encoding="UTF-8" standalone="no"?><svg xmlns="http://www.w3.org/2000/svg" xmlns:xlink="http://www.w3.org/1999/xlink" contentScriptType="application/ecmascript" contentStyleType="text/css" height="378px" preserveAspectRatio="none" style="width:563px;height:378px;" version="1.1" viewBox="0 0 563 378" width="563px" zoomAndPan="magnify"><defs><filter height="300%" id="fe4mhw0gigecp" width="300%" x="-1" y="-1"><feGaussianBlur result="blurOut" stdDeviation="2.0"/><feColorMatrix in="blurOut" result="blurOut2" type="matrix" values="0 0 0 0 0 0 0 0 0 0 0 0 0 0 0 0 0 0 .4 0"/><feOffset dx="4.0" dy="4.0" in="blurOut2" result="blurOut3"/><feBlend in="SourceGraphic" in2="blurOut3" mode="normal"/></filter></defs><g><text fill="#000000" font-family="sans-serif" font-size="18" lengthAdjust="spacingAndGlyphs" textLength="104" x="233.5" y="16.708">DB package</text><!--MD5=[e8f3788ad7b97e8de68b4194558bc2a1]
cluster db--><polygon fill="#FFFFFF" filter="url(#fe4mhw0gigecp)" points="22,44.9531,48,44.9531,55,67.25,467,67.25,467,366.9531,22,366.9531,22,44.9531" style="stroke: #000000; stroke-width: 1.5;"/><line style="stroke: #000000; stroke-width: 1.5;" x1="22" x2="55" y1="67.25" y2="67.25"/><text fill="#000000" font-family="sans-serif" font-size="14" font-weight="bold" lengthAdjust="spacingAndGlyphs" textLength="20" x="26" y="59.9482">db</text><!--MD5=[84f68a259baf1a0976dba76825539567]
entity db_h--><rect fill="#FEFECE" filter="url(#fe4mhw0gigecp)" height="36.2969" style="stroke: #A80036; stroke-width: 1.5;" width="51" x="71.5" y="97.4531"/><rect fill="#FEFECE" height="5" style="stroke: #A80036; stroke-width: 1.5;" width="10" x="66.5" y="102.4531"/><rect fill="#FEFECE" height="5" style="stroke: #A80036; stroke-width: 1.5;" width="10" x="66.5" y="123.75"/><text fill="#000000" font-family="sans-serif" font-size="14" lengthAdjust="spacingAndGlyphs" textLength="31" x="81.5" y="120.4482">db.h</text><!--MD5=[a74e47c30be02e594eaba29072576cc8]
entity dbi_int--><rect fill="#FEFECE" filter="url(#fe4mhw0gigecp)" height="36.2969" style="stroke: #A80036; stroke-width: 1.5;" width="78" x="38" y="212.9531"/><rect fill="#FEFECE" height="5" style="stroke: #A80036; stroke-width: 1.5;" width="10" x="33" y="217.9531"/><rect fill="#FEFECE" height="5" style="stroke: #A80036; stroke-width: 1.5;" width="10" x="33" y="239.25"/><text fill="#000000" font-family="sans-serif" font-size="14" lengthAdjust="spacingAndGlyphs" textLength="58" x="48" y="235.9482">dbi_int.h</text><!--MD5=[3430fd671be934cec2e6dbfcf8f671ee]
entity dbi_ext--><rect fill="#FEFECE" filter="url(#fe4mhw0gigecp)" height="36.2969" style="stroke: #A80036; stroke-width: 1.5;" width="82" x="38" y="312.9531"/><rect fill="#FEFECE" height="5" style="stroke: #A80036; stroke-width: 1.5;" width="10" x="33" y="317.9531"/><rect fill="#FEFECE" height="5" style="stroke: #A80036; stroke-width: 1.5;" width="10" x="33" y="339.25"/><text fill="#000000" font-family="sans-serif" font-size="14" lengthAdjust="spacingAndGlyphs" textLength="62" x="48" y="335.9482">dbi_ext.h</text><path d="M158,79.9531 L158,111.4531 L122.78,115.4531 L158,119.4531 L158,150.4844 A0,0 0 0 0 158,150.4844 L430,150.4844 A0,0 0 0 0 430,150.4844 L430,89.9531 L420,79.9531 L158,79.9531 A0,0 0 0 0 158,79.9531 " fill="#FBFB77" filter="url(#fe4mhw0gigecp)" style="stroke: #A80036; stroke-width: 1.0;"/><path d="M420,79.9531 L420,89.9531 L430,89.9531 L420,79.9531 " fill="#FBFB77" style="stroke: #A80036; stroke-width: 1.0;"/><text fill="#000000" font-family="sans-serif" font-size="13" lengthAdjust="spacingAndGlyphs" textLength="224" x="164" y="97.02">Main LMDB DB struct (DataBase_t)</text><text fill="#000000" font-family="sans-serif" font-size="13" lengthAdjust="spacingAndGlyphs" textLength="251" x="164" y="112.1528">and global DataBase handle DataBase.</text><text fill="#000000" font-family="sans-serif" font-size="13" lengthAdjust="spacingAndGlyphs" textLength="190" x="164" y="127.2856">Includes dbi_int.h and lmdb.h;</text><text fill="#000000" font-family="sans-serif" font-size="13" lengthAdjust="spacingAndGlyphs" textLength="249" x="164" y="142.4185">initialized / torn down by the core layer.</text><path d="M151,210.9531 L151,226.9531 L116.38,230.9531 L151,234.9531 L151,251.2188 A0,0 0 0 0 151,251.2188 L451,251.2188 A0,0 0 0 0 451,251.2188 L451,220.9531 L441,210.9531 L151,210.9531 A0,0 0 0 0 151,210.9531 " fill="#FBFB77" filter="url(#fe4mhw0gigecp)" style="stroke: #A80036; stroke-width: 1.0;"/><path d="M441,210.9531 L441,220.9531 L451,220.9531 L441,210.9531 " fill="#FBFB77" style="stroke: #A80036; stroke-width: 1.0;"/><text fill="#000000" font-family="sans-serif" font-size="13" lengthAdjust="spacingAndGlyphs" textLength="258" x="157" y="228.02">Descriptor for opened DBIs (dbi_t array),</text><text fill="#000000" font-family="sans-serif" font-size="13" lengthAdjust="spacingAndGlyphs" textLength="279" x="157" y="243.1528">exposed via db.h and using dbi_ext.h types.</text><path d="M155,310.9531 L155,326.9531 L120.34,330.9531 L155,334.9531 L155,351.2188 A0,0 0 0 0 155,351.2188 L395,351.2188 A0,0 0 0 0 395,351.2188 L395,320.9531 L385,310.9531 L155,310.9531 A0,0 0 0 0 155,310.9531 " fill="#FBFB77" filter="url(#fe4mhw0gigecp)" style="stroke: #A80036; stroke-width: 1.0;"/><path d="M385,310.9531 L385,320.9531 L395,320.9531 L385,310.9531 " fill="#FBFB77" style="stroke: #A80036; stroke-width: 1.0;"/><text fill="#000000" font-family="sans-serif" font-size="13" lengthAdjust="spacingAndGlyphs" textLength="187" x="161" y="328.02">Logical DBI kinds (dbi_type_t)</text><text fill="#000000" font-family="sans-serif" font-size="13" lengthAdjust="spacingAndGlyphs" textLength="219" x="161" y="343.1528">for default / DUPSORT / DUPFIXED.</text><!--MD5=[2b33d9edc820bacf95df57a8f964e5dc]
entity lmdb--><rect fill="#FEFECE" filter="url(#fe4mhw0gigecp)" height="36.2969" style="stroke: #A80036; stroke-width: 1.5;" width="67" x="485.5" y="212.9531"/><rect fill="#FEFECE" height="5" style="stroke: #A80036; stroke-width: 1.5;" width="10" x="480.5" y="217.9531"/><rect fill="#FEFECE" height="5" style="stroke: #A80036; stroke-width: 1.5;" width="10" x="480.5" y="239.25"/><text fill="#000000" font-family="sans-serif" font-size="14" lengthAdjust="spacingAndGlyphs" textLength="47" x="495.5" y="235.9482">lmdb.h</text><!--MD5=[bf9d3125be96196c90d2950ab5119dfe]
link db_h to dbi_int--><path d="M93.96,133.6931 C90.46,153.5531 84.7,186.2431 80.88,207.9331 " fill="none" id="db_h-&gt;dbi_int" style="stroke: #A80036; stroke-width: 1.0;"/><polygon fill="#A80036" points="80,212.9231,85.5059,204.757,80.8706,207.9995,77.6281,203.3641,80,212.9231" style="stroke: #A80036; stroke-width: 1.0;"/><!--MD5=[d8ade167b76cba58c98a16299a665c87]
link dbi_int to dbi_ext--><path d="M77.35,249.0231 C77.68,265.2231 78.18,289.6731 78.54,307.4631 " fill="none" id="dbi_int-&gt;dbi_ext" style="stroke: #A80036; stroke-width: 1.0;"/><polygon fill="#A80036" points="78.65,312.7531,82.4692,303.6749,78.55,307.7541,74.4708,303.8349,78.65,312.7531" style="stroke: #A80036; stroke-width: 1.0;"/><!--MD5=[c9ea5e443c6244583b0c4a2c41113e19]
link db_h to lmdb--><path d="M114.95,133.7531 C122.46,140.0831 131.62,146.7231 141,150.9531 C275.31,211.4931 324.87,172.2031 467,210.9531 C471.43,212.1631 476.01,213.5731 480.54,215.0831 " fill="none" id="db_h-&gt;lmdb" style="stroke: #A80036; stroke-width: 1.0;"/><polygon fill="#A80036" points="485.42,216.7531,478.195,210.0599,480.6881,215.1377,475.6103,217.6309,485.42,216.7531" style="stroke: #A80036; stroke-width: 1.0;"/><!--MD5=[b675fa790bd229d445808f7e477776c8]
@startuml

title DB package


package "db" {
  component "db.h" as db_h
  component "dbi_int.h" as dbi_int
  component "dbi_ext.h" as dbi_ext

  note right of db_h
  Main LMDB DB struct (DataBase_t)
  and global DataBase handle DataBase.
  Includes dbi_int.h and lmdb.h;
  initialized / torn down by the core layer.
  end note

  note right of dbi_int
  Descriptor for opened DBIs (dbi_t array),
  exposed via db.h and using dbi_ext.h types.
  end note

  note right of dbi_ext
  Logical DBI kinds (dbi_type_t)
  for default / DUPSORT / DUPFIXED.
  end note
}

component "lmdb.h" as lmdb

db_h - -> dbi_int
dbi_int - -> dbi_ext
db_h - -> lmdb

@enduml

PlantUML version 1.2020.02(Sun Mar 01 11:22:07 CET 2020)
(GPL source distribution)
Java Runtime: OpenJDK Runtime Environment
JVM: OpenJDK 64-Bit Server VM
Java Version: 21.0.8+9-Ubuntu-0ubuntu124.04.1
Operating System: Linux
Default Encoding: UTF-8
Language: en
Country: null
--></g></svg>