<?xml version="1.0" encoding="UTF-8" standalone="no"?><svg xmlns="http://www.w3.org/2000/svg" xmlns:xlink="http://www.w3.org/1999/xlink" contentScriptType="application/ecmascript" contentStyleType="text/css" height="359px" preserveAspectRatio="none" style="width:567px;height:359px;" version="1.1" viewBox="0 0 567 359" width="567px" zoomAndPan="magnify"><defs><filter height="300%" id="f9shbzpl253zc" width="300%" x="-1" y="-1"><feGaussianBlur result="blurOut" stdDeviation="2.0"/><feColorMatrix in="blurOut" result="blurOut2" type="matrix" values="0 0 0 0 0 0 0 0 0 0 0 0 0 0 0 0 0 0 .4 0"/><feOffset dx="4.0" dy="4.0" in="blurOut2" result="blurOut3"/><feBlend in="SourceGraphic" in2="blurOut3" mode="normal"/></filter></defs><g><text fill="#000000" font-family="sans-serif" font-size="18" lengthAdjust="spacingAndGlyphs" textLength="355" x="109" y="16.708">DB package — db.h, dbi_int.h, dbi_ext.h</text><!--MD5=[da56fce534dcfe65d5c745b21ac89cda]
cluster DB headers--><polygon fill="#FFFFFF" filter="url(#f9shbzpl253zc)" points="22,45.4531,119,45.4531,126,67.75,136,67.75,136,347.9531,22,347.9531,22,45.4531" style="stroke: #000000; stroke-width: 1.5;"/><line style="stroke: #000000; stroke-width: 1.5;" x1="22" x2="126" y1="67.75" y2="67.75"/><text fill="#000000" font-family="sans-serif" font-size="14" font-weight="bold" lengthAdjust="spacingAndGlyphs" textLength="91" x="26" y="60.4482">DB headers</text><!--MD5=[84f68a259baf1a0976dba76825539567]
entity db_h--><rect fill="#FFFFFF" filter="url(#f9shbzpl253zc)" height="36.2969" style="stroke: #1F2937; stroke-width: 1.5;" width="51" x="66.5" y="80.4531"/><rect fill="#FFFFFF" height="5" style="stroke: #1F2937; stroke-width: 1.5;" width="10" x="61.5" y="85.4531"/><rect fill="#FFFFFF" height="5" style="stroke: #1F2937; stroke-width: 1.5;" width="10" x="61.5" y="106.75"/><text fill="#0F172A" font-family="sans-serif" font-size="14" lengthAdjust="spacingAndGlyphs" textLength="31" x="76.5" y="103.4482">db.h</text><!--MD5=[a74e47c30be02e594eaba29072576cc8]
entity dbi_int--><rect fill="#FFFFFF" filter="url(#f9shbzpl253zc)" height="36.2969" style="stroke: #1F2937; stroke-width: 1.5;" width="78" x="40" y="195.9531"/><rect fill="#FFFFFF" height="5" style="stroke: #1F2937; stroke-width: 1.5;" width="10" x="35" y="200.9531"/><rect fill="#FFFFFF" height="5" style="stroke: #1F2937; stroke-width: 1.5;" width="10" x="35" y="222.25"/><text fill="#0F172A" font-family="sans-serif" font-size="14" lengthAdjust="spacingAndGlyphs" textLength="58" x="50" y="218.9482">dbi_int.h</text><!--MD5=[3430fd671be934cec2e6dbfcf8f671ee]
entity dbi_ext--><rect fill="#FFFFFF" filter="url(#f9shbzpl253zc)" height="36.2969" style="stroke: #1F2937; stroke-width: 1.5;" width="82" x="38" y="295.9531"/><rect fill="#FFFFFF" height="5" style="stroke: #1F2937; stroke-width: 1.5;" width="10" x="33" y="300.9531"/><rect fill="#FFFFFF" height="5" style="stroke: #1F2937; stroke-width: 1.5;" width="10" x="33" y="322.25"/><text fill="#0F172A" font-family="sans-serif" font-size="14" lengthAdjust="spacingAndGlyphs" textLength="62" x="48" y="318.9482">dbi_ext.h</text><!--MD5=[2b33d9edc820bacf95df57a8f964e5dc]
entity lmdb--><rect fill="#FFFFFF" filter="url(#f9shbzpl253zc)" height="36.2969" style="stroke: #1F2937; stroke-width: 1.5;" width="67" x="153.5" y="195.9531"/><rect fill="#FFFFFF" height="5" style="stroke: #1F2937; stroke-width: 1.5;" width="10" x="148.5" y="200.9531"/><rect fill="#FFFFFF" height="5" style="stroke: #1F2937; stroke-width: 1.5;" width="10" x="148.5" y="222.25"/><text fill="#0F172A" font-family="sans-serif" font-size="14" lengthAdjust="spacingAndGlyphs" textLength="47" x="163.5" y="218.9482">lmdb.h</text><path d="M153,62.9531 L153,94.4531 L117.78,98.4531 L153,102.4531 L153,133.4844 A0,0 0 0 0 153,133.4844 L425,133.4844 A0,0 0 0 0 425,133.4844 L425,72.9531 L415,62.9531 L153,62.9531 A0,0 0 0 0 153,62.9531 " fill="#FFFFFF" filter="url(#f9shbzpl253zc)" style="stroke: #CBD5E1; stroke-width: 1.0;"/><path d="M415,62.9531 L415,72.9531 L425,72.9531 L415,62.9531 " fill="#FFFFFF" style="stroke: #CBD5E1; stroke-width: 1.0;"/><text fill="#0F172A" font-family="sans-serif" font-size="13" lengthAdjust="spacingAndGlyphs" textLength="224" x="159" y="80.02">Main LMDB DB struct (DataBase_t)</text><text fill="#0F172A" font-family="sans-serif" font-size="13" lengthAdjust="spacingAndGlyphs" textLength="251" x="159" y="95.1528">and global DataBase handle DataBase.</text><text fill="#0F172A" font-family="sans-serif" font-size="13" lengthAdjust="spacingAndGlyphs" textLength="190" x="159" y="110.2856">Includes dbi_int.h and lmdb.h;</text><text fill="#0F172A" font-family="sans-serif" font-size="13" lengthAdjust="spacingAndGlyphs" textLength="249" x="159" y="125.4185">initialized / torn down by the core layer.</text><path d="M255,193.9531 L255,234.2188 L555,234.2188 L555,203.9531 L545,193.9531 L255,193.9531 " fill="#FFFFFF" filter="url(#f9shbzpl253zc)" style="stroke: #CBD5E1; stroke-width: 1.0;"/><path d="M545,193.9531 L545,203.9531 L555,203.9531 L545,193.9531 " fill="#FFFFFF" style="stroke: #CBD5E1; stroke-width: 1.0;"/><text fill="#0F172A" font-family="sans-serif" font-size="13" lengthAdjust="spacingAndGlyphs" textLength="258" x="261" y="211.02">Descriptor for opened DBIs (dbi_t array),</text><text fill="#0F172A" font-family="sans-serif" font-size="13" lengthAdjust="spacingAndGlyphs" textLength="279" x="261" y="226.1528">exposed via db.h and using dbi_ext.h types.</text><path d="M155,293.9531 L155,309.9531 L120.34,313.9531 L155,317.9531 L155,334.2188 A0,0 0 0 0 155,334.2188 L395,334.2188 A0,0 0 0 0 395,334.2188 L395,303.9531 L385,293.9531 L155,293.9531 A0,0 0 0 0 155,293.9531 " fill="#FFFFFF" filter="url(#f9shbzpl253zc)" style="stroke: #CBD5E1; stroke-width: 1.0;"/><path d="M385,293.9531 L385,303.9531 L395,303.9531 L385,293.9531 " fill="#FFFFFF" style="stroke: #CBD5E1; stroke-width: 1.0;"/><text fill="#0F172A" font-family="sans-serif" font-size="13" lengthAdjust="spacingAndGlyphs" textLength="187" x="161" y="311.02">Logical DBI kinds (dbi_type_t)</text><text fill="#0F172A" font-family="sans-serif" font-size="13" lengthAdjust="spacingAndGlyphs" textLength="219" x="161" y="326.1528">for default / DUPSORT / DUPFIXED.</text><!--MD5=[bf9d3125be96196c90d2950ab5119dfe]
link db_h to dbi_int--><path d="M90.03,116.6931 C87.75,136.5531 84.01,169.2431 81.52,190.9331 " fill="none" id="db_h-&gt;dbi_int" style="stroke: #A80036; stroke-width: 1.0;"/><polygon fill="#A80036" points="80.95,195.9231,85.9516,187.4388,81.521,190.9558,78.0039,186.5252,80.95,195.9231" style="stroke: #A80036; stroke-width: 1.0;"/><!--MD5=[d8ade167b76cba58c98a16299a665c87]
link dbi_int to dbi_ext--><path d="M79,232.0231 C79,248.2231 79,272.6731 79,290.4631 " fill="none" id="dbi_int-&gt;dbi_ext" style="stroke: #A80036; stroke-width: 1.0;"/><polygon fill="#A80036" points="79,295.7531,83,286.7531,79,290.7531,75,286.7531,79,295.7531" style="stroke: #A80036; stroke-width: 1.0;"/><!--MD5=[c9ea5e443c6244583b0c4a2c41113e19]
link db_h to lmdb--><path d="M106.43,116.6931 C123.34,136.8931 151.34,170.3531 169.48,192.0231 " fill="none" id="db_h-&gt;lmdb" style="stroke: #A80036; stroke-width: 1.0;"/><polygon fill="#A80036" points="172.75,195.9231,170.0266,186.4583,169.535,192.0938,163.8996,191.6022,172.75,195.9231" style="stroke: #A80036; stroke-width: 1.0;"/><!--MD5=[25a15792766822bfc678195d9d9d13db]
link dbi_int to GMN43--><path d="M98.79,195.8631 C112.89,184.2531 132.94,170.2131 153.5,163.9531 C226.54,141.7131 314.59,171.7131 364.76,193.9431 " fill="none" id="dbi_int-GMN43" style="stroke: #A80036; stroke-width: 1.0; stroke-dasharray: 7.0,7.0;"/><!--MD5=[09277bad153b26c046da038491b4cbe1]
@startuml

title DB package — db.h, dbi_int.h, dbi_ext.h

skinparam backgroundColor transparent
skinparam component {
  BackgroundColor #FFFFFF
  BorderColor #1F2937
  FontColor #0F172A
}
skinparam note {
  BackgroundColor #FFFFFF
  BorderColor #CBD5E1
  FontColor #0F172A
}

package "DB headers" {
  component "db.h" as db_h
  component "dbi_int.h" as dbi_int
  component "dbi_ext.h" as dbi_ext
}

component "lmdb.h" as lmdb

db_h - -> dbi_int
dbi_int - -> dbi_ext
db_h - -> lmdb

note right of db_h
Main LMDB DB struct (DataBase_t)
and global DataBase handle DataBase.
Includes dbi_int.h and lmdb.h;
initialized / torn down by the core layer.
end note

note right of dbi_int
Descriptor for opened DBIs (dbi_t array),
exposed via db.h and using dbi_ext.h types.
end note

note right of dbi_ext
Logical DBI kinds (dbi_type_t)
for default / DUPSORT / DUPFIXED.
end note

@enduml

PlantUML version 1.2020.02(Sun Mar 01 11:22:07 CET 2020)
(GPL source distribution)
Java Runtime: OpenJDK Runtime Environment
JVM: OpenJDK 64-Bit Server VM
Java Version: 21.0.8+9-Ubuntu-0ubuntu124.04.1
Operating System: Linux
Default Encoding: UTF-8
Language: en
Country: null
--></g></svg>