<svg xmlns="http://www.w3.org/2000/svg" xmlns:xlink="http://www.w3.org/1999/xlink" contentStyleType="text/css" data-diagram-type="DESCRIPTION" height="1217.7083px" preserveAspectRatio="none" style="width:694px;height:1217px;background:#FFFFFF;" version="1.1" viewBox="0 0 694 1217" width="694.1667px" zoomAndPan="magnify"><title>LMDB Wrapper &#8212; Static view</title><defs/><g><g class="title" data-source-line="50"><text fill="#000000" font-family="'Arial'" font-size="20.4167" font-weight="bold" lengthAdjust="spacing" textLength="334.3129" x="170.1761" y="33.5345">LMDB Wrapper &#8212; Static view</text></g><!--cluster Public surface--><g class="cluster" data-entity="Public surface" data-source-line="52" data-uid="ent0002" id="cluster_Public surface"><path d="M14.5833,63.1413 L174.352,63.1413 A8.75,8.75 0 0 1 180.1853,68.9746 L190.3937,95.6576 L207.0833,95.6576 A5.8333,5.8333 0 0 1 212.9167,101.4909 L212.9167,570.3496 A5.8333,5.8333 0 0 1 207.0833,576.1829 L14.5833,576.1829 A5.8333,5.8333 0 0 1 8.75,570.3496 L8.75,68.9746 A5.8333,5.8333 0 0 1 14.5833,63.1413" fill="#EEF2FF" style="stroke:#312E81;stroke-width:2.1875;"/><line style="stroke:#312E81;stroke-width:2.1875;" x1="8.75" x2="190.3937" y1="95.6576" y2="95.6576"/><text fill="#111827" font-family="'Arial'" font-size="20.4167" font-weight="bold" lengthAdjust="spacing" textLength="162.6853" x="14.5833" y="85.0092">Public surface</text></g><!--cluster Core--><g class="cluster" data-entity="Core" data-source-line="58" data-uid="ent0006" id="cluster_Core"><path d="M253.75,424.9538 L303.7592,424.9538 A8.75,8.75 0 0 1 309.5925,430.7871 L319.8008,457.4701 L495.8333,457.4701 A5.8333,5.8333 0 0 1 501.6667,463.3034 L501.6667,723.6642 A5.8333,5.8333 0 0 1 495.8333,729.4975 L253.75,729.4975 A5.8333,5.8333 0 0 1 247.9167,723.6642 L247.9167,430.7871 A5.8333,5.8333 0 0 1 253.75,424.9538" fill="#EEF2FF" style="stroke:#312E81;stroke-width:2.1875;"/><line style="stroke:#312E81;stroke-width:2.1875;" x1="247.9167" x2="319.8008" y1="457.4701" y2="457.4701"/><text fill="#111827" font-family="'Arial'" font-size="20.4167" font-weight="bold" lengthAdjust="spacing" textLength="52.9258" x="253.75" y="446.8217">Core</text></g><!--cluster Ops--><g class="cluster" data-entity="Ops" data-source-line="63" data-uid="ent0009" id="cluster_Ops"><path d="M147.2917,764.4975 L188.4981,764.4975 A8.75,8.75 0 0 1 194.3315,770.3309 L204.5398,797.0138 L380.625,797.0138 A5.8333,5.8333 0 0 1 386.4583,802.8471 L386.4583,1074.2475 A5.8333,5.8333 0 0 1 380.625,1080.0809 L147.2917,1080.0809 A5.8333,5.8333 0 0 1 141.4583,1074.2475 L141.4583,770.3309 A5.8333,5.8333 0 0 1 147.2917,764.4975" fill="#EEF2FF" style="stroke:#312E81;stroke-width:2.1875;"/><line style="stroke:#312E81;stroke-width:2.1875;" x1="141.4583" x2="204.5398" y1="797.0138" y2="797.0138"/><text fill="#111827" font-family="'Arial'" font-size="20.4167" font-weight="bold" lengthAdjust="spacing" textLength="44.1231" x="147.2917" y="786.3654">Ops</text></g><!--entity api--><g class="entity" data-entity="api" data-source-line="53" data-uid="ent0003" id="entity_api"><rect fill="#DCFCE7" height="87.8874" rx="5.8333" ry="5.8333" style="stroke:#15803D;stroke-width:0.7292;" width="157.7257" x="31.9667" y="114.1829"/><rect fill="#DCFCE7" height="14.5833" style="stroke:#15803D;stroke-width:0.7292;" width="21.875" x="160.5257" y="121.4746"/><rect fill="#DCFCE7" height="2.9167" style="stroke:#15803D;stroke-width:0.7292;" width="5.8333" x="157.6091" y="124.3913"/><rect fill="#DCFCE7" height="2.9167" style="stroke:#15803D;stroke-width:0.7292;" width="5.8333" x="157.6091" y="130.2246"/><text fill="#0F172A" font-family="'Arial'" font-size="18.9583" font-style="italic" lengthAdjust="spacing" textLength="80.2397" x="63.418" y="160.9472">&#171;public&#187;</text><text fill="#0F172A" font-family="'Arial'" font-size="18.9583" lengthAdjust="spacing" textLength="99.3924" x="53.8417" y="183.0158">db_lmdb.h</text></g><!--entity db--><g class="entity" data-entity="db" data-source-line="54" data-uid="ent0004" id="entity_db"><rect fill="#DCFCE7" height="87.8874" rx="5.8333" ry="5.8333" style="stroke:#15803D;stroke-width:0.7292;" width="141.4897" x="41.5479" y="289.5621"/><rect fill="#DCFCE7" height="14.5833" style="stroke:#15803D;stroke-width:0.7292;" width="21.875" x="153.8709" y="296.8538"/><rect fill="#DCFCE7" height="2.9167" style="stroke:#15803D;stroke-width:0.7292;" width="5.8333" x="150.9542" y="299.7704"/><rect fill="#DCFCE7" height="2.9167" style="stroke:#15803D;stroke-width:0.7292;" width="5.8333" x="150.9542" y="305.6038"/><text fill="#0F172A" font-family="'Arial'" font-size="18.9583" font-style="italic" lengthAdjust="spacing" textLength="80.2397" x="64.8813" y="336.3263">&#171;public&#187;</text><text fill="#0F172A" font-family="'Arial'" font-size="18.9583" lengthAdjust="spacing" textLength="42.1101" x="83.946" y="358.395">db.h</text></g><!--entity dbi_h--><g class="entity" data-entity="dbi_h" data-source-line="55" data-uid="ent0005" id="entity_dbi_h"><rect fill="#DCFCE7" height="87.8874" rx="5.8333" ry="5.8333" style="stroke:#15803D;stroke-width:0.7292;" width="141.4897" x="44.4646" y="464.9559"/><rect fill="#DCFCE7" height="14.5833" style="stroke:#15803D;stroke-width:0.7292;" width="21.875" x="156.7876" y="472.2475"/><rect fill="#DCFCE7" height="2.9167" style="stroke:#15803D;stroke-width:0.7292;" width="5.8333" x="153.8709" y="475.1642"/><rect fill="#DCFCE7" height="2.9167" style="stroke:#15803D;stroke-width:0.7292;" width="5.8333" x="153.8709" y="480.9975"/><text fill="#0F172A" font-family="'Arial'" font-size="18.9583" font-style="italic" lengthAdjust="spacing" textLength="80.2397" x="67.7979" y="511.7201">&#171;public&#187;</text><text fill="#0F172A" font-family="'Arial'" font-size="18.9583" lengthAdjust="spacing" textLength="47.3773" x="84.2291" y="533.7888">dbi.h</text></g><!--entity core--><g class="entity" data-entity="core" data-source-line="59" data-uid="ent0007" id="entity_core"><rect fill="#E5E7EB" height="65.8187" rx="5.8333" ry="5.8333" style="stroke:#1F2937;stroke-width:0.7292;" width="207.0933" x="271.25" y="475.9954"/><rect fill="#E5E7EB" height="14.5833" style="stroke:#1F2937;stroke-width:0.7292;" width="21.875" x="449.1766" y="483.2871"/><rect fill="#E5E7EB" height="2.9167" style="stroke:#1F2937;stroke-width:0.7292;" width="5.8333" x="446.26" y="486.2038"/><rect fill="#E5E7EB" height="2.9167" style="stroke:#1F2937;stroke-width:0.7292;" width="5.8333" x="446.26" y="492.0371"/><text fill="#0F172A" font-family="'Arial'" font-size="18.9583" lengthAdjust="spacing" textLength="148.76" x="293.125" y="522.7597">db_lmdb_core.c</text></g><!--entity dbi--><g class="entity" data-entity="dbi" data-source-line="60" data-uid="ent0008" id="entity_dbi"><rect fill="#E5E7EB" height="65.8187" rx="5.8333" ry="5.8333" style="stroke:#1F2937;stroke-width:0.7292;" width="194.9481" x="271.4833" y="640.3496"/><rect fill="#E5E7EB" height="14.5833" style="stroke:#1F2937;stroke-width:0.7292;" width="21.875" x="437.2648" y="647.6413"/><rect fill="#E5E7EB" height="2.9167" style="stroke:#1F2937;stroke-width:0.7292;" width="5.8333" x="434.3481" y="650.5579"/><rect fill="#E5E7EB" height="2.9167" style="stroke:#1F2937;stroke-width:0.7292;" width="5.8333" x="434.3481" y="656.3913"/><text fill="#0F172A" font-family="'Arial'" font-size="18.9583" lengthAdjust="spacing" textLength="136.6148" x="293.3583" y="687.1138">db_lmdb_dbi.c</text></g><!--entity ops--><g class="entity" data-entity="ops" data-source-line="64" data-uid="ent0010" id="entity_ops"><rect fill="#E5E7EB" height="65.8187" rx="5.8333" ry="5.8333" style="stroke:#1F2937;stroke-width:0.7292;" width="199.123" x="164.3979" y="815.5392"/><rect fill="#E5E7EB" height="14.5833" style="stroke:#1F2937;stroke-width:0.7292;" width="21.875" x="334.3543" y="822.8309"/><rect fill="#E5E7EB" height="2.9167" style="stroke:#1F2937;stroke-width:0.7292;" width="5.8333" x="331.4376" y="825.7475"/><rect fill="#E5E7EB" height="2.9167" style="stroke:#1F2937;stroke-width:0.7292;" width="5.8333" x="331.4376" y="831.5809"/><text fill="#0F172A" font-family="'Arial'" font-size="18.9583" lengthAdjust="spacing" textLength="140.7897" x="186.2729" y="862.3034">db_lmdb_ops.c</text></g><!--entity void_store--><g class="entity" data-entity="void_store" data-source-line="65" data-uid="ent0011" id="entity_void_store"><rect fill="#FFE4E6" height="87.8874" rx="5.8333" ry="5.8333" style="stroke:#BE123C;stroke-width:0.7292;" width="172.7498" x="177.5813" y="968.8538"/><rect fill="#FFE4E6" height="14.5833" style="stroke:#BE123C;stroke-width:0.7292;" width="21.875" x="321.1644" y="976.1454"/><rect fill="#FFE4E6" height="2.9167" style="stroke:#BE123C;stroke-width:0.7292;" width="5.8333" x="318.2478" y="979.0621"/><rect fill="#FFE4E6" height="2.9167" style="stroke:#BE123C;stroke-width:0.7292;" width="5.8333" x="318.2478" y="984.8954"/><text fill="#0F172A" font-family="'Arial'" font-size="18.9583" font-style="italic" lengthAdjust="spacing" textLength="96.2728" x="208.5281" y="1015.618">&#171;internal&#187;</text><text fill="#0F172A" font-family="'Arial'" font-size="18.9583" lengthAdjust="spacing" textLength="114.4165" x="199.4563" y="1037.6867">void_store.c</text></g><!--entity internal--><g class="entity" data-entity="internal" data-source-line="68" data-uid="ent0012" id="entity_internal"><rect fill="#FFE4E6" height="87.8874" rx="5.8333" ry="5.8333" style="stroke:#BE123C;stroke-width:0.7292;" width="243.9454" x="410.3167" y="968.8538"/><rect fill="#FFE4E6" height="14.5833" style="stroke:#BE123C;stroke-width:0.7292;" width="21.875" x="625.0954" y="976.1454"/><rect fill="#FFE4E6" height="2.9167" style="stroke:#BE123C;stroke-width:0.7292;" width="5.8333" x="622.1787" y="979.0621"/><rect fill="#FFE4E6" height="2.9167" style="stroke:#BE123C;stroke-width:0.7292;" width="5.8333" x="622.1787" y="984.8954"/><text fill="#0F172A" font-family="'Arial'" font-size="18.9583" font-style="italic" lengthAdjust="spacing" textLength="96.2728" x="476.8613" y="1015.618">&#171;internal&#187;</text><text fill="#0F172A" font-family="'Arial'" font-size="18.9583" lengthAdjust="spacing" textLength="185.6121" x="432.1917" y="1037.6867">internal.h / config.h</text></g><!--entity lmdb--><g class="entity" data-entity="lmdb" data-source-line="69" data-uid="ent0013" id="entity_lmdb"><rect fill="#E5E7EB" height="65.8187" rx="5.8333" ry="5.8333" style="stroke:#1F2937;stroke-width:0.7292;" width="168.1399" x="351.9688" y="1144.2475"/><rect fill="#E5E7EB" height="14.5833" style="stroke:#1F2937;stroke-width:0.7292;" width="21.875" x="490.9419" y="1151.5392"/><rect fill="#E5E7EB" height="2.9167" style="stroke:#1F2937;stroke-width:0.7292;" width="5.8333" x="488.0253" y="1154.4559"/><rect fill="#E5E7EB" height="2.9167" style="stroke:#1F2937;stroke-width:0.7292;" width="5.8333" x="488.0253" y="1160.2892"/><text fill="#0F172A" font-family="'Arial'" font-size="18.9583" lengthAdjust="spacing" textLength="109.8065" x="373.8438" y="1191.0117">LMDB C API</text></g><!--entity emlog--><g class="entity" data-entity="emlog" data-source-line="70" data-uid="ent0014" id="entity_emlog"><rect fill="#E5E7EB" height="65.8187" rx="5.8333" ry="5.8333" style="stroke:#1F2937;stroke-width:0.7292;" width="115.5694" x="570.7625" y="1144.2475"/><rect fill="#E5E7EB" height="14.5833" style="stroke:#1F2937;stroke-width:0.7292;" width="21.875" x="657.1652" y="1151.5392"/><rect fill="#E5E7EB" height="2.9167" style="stroke:#1F2937;stroke-width:0.7292;" width="5.8333" x="654.2485" y="1154.4559"/><rect fill="#E5E7EB" height="2.9167" style="stroke:#1F2937;stroke-width:0.7292;" width="5.8333" x="654.2485" y="1160.2892"/><text fill="#0F172A" font-family="'Arial'" font-size="18.9583" lengthAdjust="spacing" textLength="57.236" x="592.6375" y="1191.0117">EMlog</text></g><g class="entity" data-entity="GMN27" data-source-line="87" data-uid="ent0028" id="entity_GMN27"><path d="M339.0042,308.2871 L339.0042,327.6829 L183.6625,333.5163 L339.0042,339.3496 L339.0042,358.7363 A5.8333,5.8333 0 0 0 344.8375,364.5697 L661.4226,364.5697 A5.8333,5.8333 0 0 0 667.2559,358.7363 L667.2559,317.0371 L652.6726,302.4538 L344.8375,302.4538 A5.8333,5.8333 0 0 0 339.0042,308.2871" fill="#FFF7ED" style="stroke:#EA580C;stroke-width:0.7292;"/><path d="M652.6726,302.4538 L652.6726,314.1204 A2.9167,2.9167 0 0 0 655.5892,317.0371 L667.2559,317.0371 L652.6726,302.4538" fill="#FFF7ED" style="stroke:#EA580C;stroke-width:0.7292;"/><text fill="#7C2D12" font-family="'Arial'" font-size="20.4167" lengthAdjust="spacing" textLength="287.7275" x="347.7542" y="328.6967">Exposes dbi.h so callers can</text><text fill="#7C2D12" font-family="'Arial'" font-size="20.4167" lengthAdjust="spacing" textLength="297.6267" x="347.7542" y="352.4629">use dbi_desc_t alongside DB.</text></g><!--link api to core--><g class="link" data-entity-1="api" data-entity-2="core" data-source-line="72" data-uid="lnk15" id="link_api_core"><path d="M143.1938,202.2371 C196.7583,272.8059 297.3293,405.3544 345.1043,468.3106" fill="none" id="api-to-core" style="stroke:#2563EB;stroke-width:2.1875;"/><polygon fill="#2563EB" points="350.3938,475.2809,347.1064,461.2992,345.9859,469.4723,337.8128,468.3518,350.3938,475.2809" style="stroke:#2563EB;stroke-width:2.1875;"/></g><!--link api to db--><g class="link" data-entity-1="api" data-entity-2="db" data-source-line="73" data-uid="lnk16" id="link_api_db"><path d="M111.1979,202.66 C111.4167,228.9975 111.6357,253.8332 111.8545,280.1853" fill="none" id="api-to-db" style="stroke:#2563EB;stroke-width:2.1875;"/><polygon fill="#2563EB" points="111.9271,288.935,117.6513,275.7621,111.8666,281.6436,105.985,275.8589,111.9271,288.935" style="stroke:#2563EB;stroke-width:2.1875;"/></g><!--link db to dbi_h--><g class="link" data-entity-1="db" data-entity-2="dbi_h" data-source-line="74" data-uid="lnk17" id="link_db_dbi_h"><path d="M113.0208,378.0538 C113.4583,404.3913 113.877,429.2134 114.3291,455.5655" fill="none" id="db-to-dbi_h" style="stroke:#2563EB;stroke-width:2.1875;"/><polygon fill="#2563EB" points="114.4792,464.3142,120.0865,451.0911,114.3541,457.0236,108.4216,451.2912,114.4792,464.3142" style="stroke:#2563EB;stroke-width:2.1875;"/></g><!--link dbi_h to dbi--><g class="link" data-entity-1="dbi_h" data-entity-2="dbi" data-source-line="75" data-uid="lnk18" id="link_dbi_h_dbi"><path d="M182.5396,553.1996 C225.2687,580.3829 272.268,610.2769 311.2492,635.0832" fill="none" id="dbi_h-to-dbi" style="stroke:#2563EB;stroke-width:2.1875;"/><polygon fill="#2563EB" points="318.6313,639.7809,310.69,627.813,312.4796,635.8661,304.4264,637.6557,318.6313,639.7809" style="stroke:#2563EB;stroke-width:2.1875;"/></g><!--link core to dbi--><g class="link" data-entity-1="core" data-entity-2="dbi" data-source-line="76" data-uid="lnk19" id="link_core_dbi"><path d="M373.6396,542.2475 C372.6188,570.5538 371.4468,602.9345 370.4259,631.2261" fill="none" id="core-to-dbi" style="stroke:#2563EB;stroke-width:2.1875;"/><polygon fill="#2563EB" points="370.1104,639.9704,376.4132,627.0643,370.3733,632.6835,364.7542,626.6436,370.1104,639.9704" style="stroke:#2563EB;stroke-width:2.1875;"/></g><!--link dbi to ops--><g class="link" data-entity-1="dbi" data-entity-2="ops" data-source-line="77" data-uid="lnk20" id="link_dbi_ops"><path d="M349.4604,706.7184 C330.5896,737.6496 306.7354,776.8011 287.9083,807.6886" fill="none" id="dbi-to-ops" style="stroke:#2563EB;stroke-width:2.1875;"/><polygon fill="#2563EB" points="283.3542,815.16,295.1663,806.9889,287.1493,808.9338,285.2044,800.9168,283.3542,815.16" style="stroke:#2563EB;stroke-width:2.1875;"/></g><!--link ops to void_store--><g class="link" data-entity-1="ops" data-entity-2="void_store" data-source-line="78" data-uid="lnk21" id="link_ops_void_store"><path d="M263.9583,881.8059 C263.9583,906.6121 263.9583,932.5267 263.9583,959.7538" fill="none" id="ops-to-void_store" style="stroke:#2563EB;stroke-width:2.1875;"/><polygon fill="#2563EB" points="263.9583,968.5038,269.7917,955.3788,263.9583,961.2121,258.125,955.3788,263.9583,968.5038" style="stroke:#2563EB;stroke-width:2.1875;"/></g><!--link core to internal--><g class="link" data-entity-1="core" data-entity-2="internal" data-source-line="80" data-uid="lnk22" id="link_core_internal"><path d="M414.2687,542.3642 C440.8542,566.3538 474.1333,601.5871 491.4583,640.3496 C540.7937,750.6579 540.4219,888.412 536.3094,959.812" fill="none" id="core-to-internal" style="stroke:#2563EB;stroke-width:2.1875;"/><polygon fill="#2563EB" points="535.8063,968.5475,542.3847,955.7797,536.2255,961.2679,530.7373,955.1088,535.8063,968.5475" style="stroke:#2563EB;stroke-width:2.1875;"/></g><!--link dbi to internal--><g class="link" data-entity-1="dbi" data-entity-2="internal" data-source-line="81" data-uid="lnk23" id="link_dbi_internal"><path d="M384.3292,706.3829 C413.7875,767.1079 474.4261,892.0753 507.6907,960.6315" fill="none" id="dbi-to-internal" style="stroke:#2563EB;stroke-width:2.1875;"/><polygon fill="#2563EB" points="511.5104,968.5038,511.029,954.1489,508.3273,961.9436,500.5327,959.2419,511.5104,968.5038" style="stroke:#2563EB;stroke-width:2.1875;"/></g><!--link ops to internal--><g class="link" data-entity-1="ops" data-entity-2="internal" data-source-line="82" data-uid="lnk24" id="link_ops_internal"><path d="M316.9688,881.8059 C358.0646,906.5246 407.9087,936.5031 453.0879,963.6864" fill="none" id="ops-to-internal" style="stroke:#2563EB;stroke-width:2.1875;"/><polygon fill="#2563EB" points="460.5854,968.1975,452.3466,956.4326,454.3375,964.4383,446.3318,966.4292,460.5854,968.1975" style="stroke:#2563EB;stroke-width:2.1875;"/></g><!--link internal to lmdb--><g class="link" data-entity-1="internal" data-entity-2="lmdb" data-source-line="83" data-uid="lnk25" id="link_internal_lmdb"><path d="M506.7562,1057.0975 C490.4958,1084.3684 474.2514,1111.5888 459.4639,1136.4096" fill="none" id="internal-to-lmdb" style="stroke:#2563EB;stroke-width:2.1875;"/><polygon fill="#2563EB" points="454.9854,1143.9267,466.7144,1135.6367,458.7174,1137.6625,456.6917,1129.6655,454.9854,1143.9267" style="stroke:#2563EB;stroke-width:2.1875;"/></g><!--link internal to emlog--><g class="link" data-entity-1="internal" data-entity-2="emlog" data-source-line="84" data-uid="lnk26" id="link_internal_emlog"><path d="M557.8271,1057.0975 C574.0875,1084.3684 590.332,1111.5888 605.1195,1136.4096" fill="none" id="internal-to-emlog" style="stroke:#2563EB;stroke-width:2.1875;"/><polygon fill="#2563EB" points="609.5979,1143.9267,607.8916,1129.6655,605.8659,1137.6625,597.8689,1135.6367,609.5979,1143.9267" style="stroke:#2563EB;stroke-width:2.1875;"/></g><!--SRC=[dLLVRzCm47_FfpYL1-1XPKdNjKZJf3Hn08d1n8PuhDp4JQsvTcIx6m8XyI7uX7mIpcdIEbdwGgLKvxlVtVtkZvENS6UfBAXGai6jeD9-lVa8hwG2zjqoBQa0BdEnAvXv3MkbuHstxtUhCyramJGhW6zfoGmySdfqDqm_CZqEp0EN5TLq2sP32_N4PGbhAWppB5hjP94eBPc6kQTVqVoXR8m2yxx8wf-7A2eEuSMvhs5hkXCsKz9-ebi6erXpAaR3Y3l-Ww7_S-CzLXuBNiejanO4MriF4skjdXf6qVHoGXPzu_s6vm-I6GFXUDet7XDFF5E5jM8NuMS0iEZNJKWMOTreKHfRtcWdOKJc8MfTn4ONXk4ycZMwjhnVVgzPZiCknJwJvtcUXRCexdXE-XcRQWSOfWiIPmGjNxnPNdOovsfRuOPXF_yZSvX5RoUpmTvCoGmv-PcaiYSQYTip8sa_E8cdy_EaIsgMH6aOTS8ALkB6dmWyp-8iwGTE5kcKX8FL3dRcwghQhGJFhw-7iwH9bf3PizuW-qbwAYAN-pjyAcQMaGjosO-v864qIJ1cOBd5PVbuaoxWcwPLXNFz-_kFUsLOdkETPqz1q2xlwBQc3sQdrpHdephZSUwZOhKKss8rtep0AvKQe1Nl8v-3YbKVmuT0VBbnl0-SS1bFCbdcQ1pd8-Vfn66GIxJ7eDI9_Rao9qEhoZHUA7KXZueNIsERt9qP8VneTRayjnOsti0R32VNlDmteElVddpNUdu9nBSVQaQEe6ycDqALjOLjKGe270YSdLtlcz8UqATODPBhSltVdWC7FHpmgMLNEZwrxDLr11_8jXu7HUjsKBH2hQqhw6WQvlNbrxpSM51hHvbyhvHXzUomSKP1JeLW6WTEPR0ph2u6lstvqeBx1fQ65mpInJXmjzs5-mS0]--></g></svg>